<svg width="791" height="537" viewBox="0 0 791 537" fill="none" xmlns="http://www.w3.org/2000/svg">
<path d="M298.464 1.83574C298.92 1.63901 299.841 1.23661 300.297 1.03094C317.538 0.24403 334.823 -0.471345 352.081 0.396049C358.09 1.01306 364.278 0.744796 370.109 2.54218C370.726 3.41851 371.334 4.30379 371.924 5.20695C368.419 4.72407 364.895 4.29485 361.363 4.70619C350.257 3.45428 339.151 1.97882 327.964 1.92516C318.128 1.66584 308.291 2.09507 298.464 1.83574Z" fill="#F5D5AB"/>
<path d="M298.464 1.83574C308.291 2.09507 318.128 1.66584 327.964 1.92516C339.151 1.97882 350.257 3.45428 361.363 4.70619C365.369 5.43945 369.34 6.42304 373.247 7.58552C369.295 8.83743 365.038 9.75847 360.916 8.77483C358.028 8.11311 356.016 5.42151 353.002 5.15324C344.999 4.21431 336.915 4.32162 328.921 3.31115C325.102 2.82828 321.213 3.12337 317.564 4.35739C311.832 4.7419 306.02 4.32162 300.27 4.09807C299.823 3.53471 298.92 2.40804 298.464 1.83574Z" fill="#1E0E04"/>
<path d="M73.2009 459.766C73.7106 458.46 74.2203 457.164 74.8373 455.921C76.7063 457.056 77.4485 459.229 78.4232 461.08L78.6288 461.59C80.0953 467.259 83.1267 472.33 84.8079 477.918C84.164 477.641 82.8764 477.087 82.2325 476.819C80.0596 471.471 77.8508 466.133 75.973 460.678C75.2844 460.445 73.8984 459.989 73.2009 459.766Z" fill="#1E0E04"/>
<path d="M317.564 4.35739C321.213 3.12337 325.102 2.82828 328.921 3.31115C336.915 4.32162 344.999 4.21431 353.002 5.15324C356.016 5.42151 358.028 8.11311 360.916 8.77483C365.038 9.75847 369.295 8.83743 373.247 7.58552C379.051 9.213 384.854 10.939 390.399 13.3087C397.821 16.5904 405.046 20.3909 411.529 25.3091C410.331 28.0633 407.881 31.2199 404.483 30.3525C401.389 28.7518 398.769 26.3196 395.496 25.0229C397.812 27.4105 400.494 29.4672 402.435 32.2125C397.508 29.2347 393.09 25.4969 388.083 22.6354C371.039 13.0225 351.822 7.40681 332.319 5.99394C327.428 5.12655 322.339 5.77026 317.564 4.35739Z" fill="#2E1604"/>
<path d="M370.109 2.54218C378.273 3.63313 386.142 6.16376 394.029 8.44402L393.886 8.63181C392.724 10.1877 391.561 11.7527 390.399 13.3087C384.854 10.939 379.051 9.213 373.247 7.58552C369.34 6.42304 365.369 5.43945 361.363 4.70619C364.895 4.29485 368.419 4.72407 371.924 5.20695C371.334 4.30379 370.726 3.41851 370.109 2.54218Z" fill="#FAEADB"/>
<path d="M390.399 13.3087C391.561 11.7527 392.724 10.1877 393.886 8.63181C403.481 11.6096 412.226 16.7603 420.498 22.385C435.422 32.6238 447.78 46.9939 454.63 63.8142C453.414 62.3477 452.171 60.899 450.973 59.4325C450.159 62.2582 447.888 63.9483 445.581 65.5132C445.688 69.0901 447.467 72.345 448.344 75.761C448.594 77.0218 448.871 78.2737 449.14 79.5346C449.927 83.2992 450.49 87.1086 450.892 90.9269C450.973 93.1893 451.08 95.4517 451.214 97.7051C451.205 99.6813 451.161 101.658 451.089 103.634C450.606 110.188 449.533 116.689 447.897 123.056C446.806 126.669 445.545 130.228 444.239 133.769C441.297 141.227 437.363 148.282 432.677 154.783C423.726 167.624 411.404 177.899 397.633 185.24C390.273 189.157 382.422 192.099 374.445 194.495C371.047 195.408 367.64 196.266 364.189 196.874C363.849 196.651 363.187 196.212 362.856 195.998C368.678 195.238 374.302 193.476 379.864 191.661C389.307 188.629 398.375 184.31 406.584 178.739C409.964 176.593 413.192 174.197 416.188 171.532C421.258 167.088 426.167 162.375 430.03 156.813C432.149 154.005 434.331 151.233 436.156 148.211C437.398 146.145 438.597 144.053 439.706 141.906C440.215 140.851 440.707 139.796 441.181 138.723C442.263 136.407 443.291 134.055 444.195 131.659C446.305 126.132 447.906 120.4 448.782 114.543C451.795 96.6589 449.658 77.764 441.78 61.3461C436.048 49.5246 427.911 38.8118 417.887 30.3078C415.857 28.5283 413.711 26.8829 411.529 25.3091C405.046 20.3909 397.821 16.5904 390.399 13.3087Z" fill="#FCFAF9"/>
<path d="M671.666 452.031C677.309 449.992 683.327 452.031 688.156 455.134C687.968 456.77 686.35 457.253 685.16 456.225C681.056 452.603 675.36 453.211 670.316 453.56C670.656 453.175 671.327 452.415 671.666 452.031Z" fill="#FCFAF9"/>
<path d="M348.352 452.406C351.357 451.789 354.424 451.414 357.5 451.61C360.809 452.692 364.019 454.222 366.773 456.386L366.648 457.307L365.253 457.584C360.54 453.542 354.209 453.193 348.352 452.406Z" fill="#FCFAF9"/>
<path d="M664.369 481.182C667.392 483.132 670.396 485.278 673.964 486.145C675.771 486.628 677.604 487.039 679.437 487.496C676.683 487.764 673.928 487.987 671.183 487.826C669.752 487.361 668.402 486.691 667.097 485.975C665.666 484.706 664.79 483.016 664.369 481.182Z" fill="#FCFAF9"/>
<path d="M395.496 25.0229C398.769 26.3196 401.389 28.7518 404.483 30.3525C407.881 31.2199 410.331 28.0633 411.529 25.3091C413.711 26.8829 415.857 28.5283 417.887 30.3078C415.526 31.6312 413.201 33.0261 410.939 34.5195C411.431 34.6447 412.405 34.8951 412.888 35.0202C412.942 36.1917 413.005 37.3542 413.085 38.5256C411.806 38.3199 410.537 38.1142 409.285 37.8639C406.638 36.5136 404.331 34.4838 402.435 32.2125C400.494 29.4672 397.812 27.4105 395.496 25.0229Z" fill="#48240A"/>
<path d="M410.939 34.5195C413.201 33.0261 415.526 31.6312 417.887 30.3078C427.911 38.8118 436.048 49.5246 441.78 61.3461C441.279 61.5071 440.269 61.8378 439.769 61.9988C438.105 59.5486 436.871 56.7139 434.663 54.6841C431.756 53.1371 429.199 55.8197 427.133 57.5098C424.799 53.7541 422.546 49.4886 418.164 47.8433C416.993 47.4319 417.02 45.9744 416.492 45.0533C413.827 42.934 411.243 40.6717 409.285 37.8639C410.537 38.1142 411.806 38.3199 413.085 38.5256C413.005 37.3542 412.942 36.1917 412.888 35.0202C412.405 34.8951 411.431 34.6447 410.939 34.5195Z" fill="#391C05"/>
<path d="M544.473 454.087C548.872 454.364 553.29 453.998 557.689 454.159C560.649 454.177 563.394 455.786 565.21 458.067C566.077 460.105 566.435 462.323 566.265 464.541C565.594 465.721 564.897 466.892 564.19 468.055C563.368 468.341 562.563 468.654 561.767 468.994C566.56 465.954 564.369 457.163 558.718 456.734C554.282 456.054 549.775 456.278 545.34 456.698C545.126 456.046 544.687 454.74 544.473 454.087Z" fill="#391C05"/>
<path d="M418.164 47.8433C422.546 49.4886 424.799 53.7541 427.133 57.5098C433.929 69.4566 437.005 83.147 438.159 96.748C438.195 103.786 438.4 110.823 438.239 117.87C440.85 118.263 444.409 117.664 446.01 120.23C445.903 124.138 442.943 127.67 444.195 131.659C443.291 134.055 442.263 136.407 441.181 138.723C441.351 136.541 441.593 134.377 441.977 132.222C439.402 130.791 436.326 130.523 433.974 128.681C434.654 126.642 434.886 124.496 435.011 122.358C436.057 116.045 436.835 109.678 437.202 103.285C437.256 87.6985 433.688 71.8887 425.506 58.5023C423.351 54.7465 420.185 51.6795 418.164 47.8433Z" fill="#4A2E19"/>
<path d="M427.133 57.5098C429.199 55.8197 431.756 53.1371 434.663 54.6841C436.871 56.7139 438.105 59.5486 439.769 61.9988C440.269 61.8378 441.279 61.5071 441.78 61.3461C449.658 77.764 451.795 96.6589 448.782 114.543C447.476 110.475 445.107 106.164 446.788 101.845C447.226 101.854 448.085 101.881 448.514 101.899C448.469 100.334 448.434 98.7691 448.407 97.2042C445.545 99.2073 442.782 101.55 439.25 102.23C438.856 100.406 438.454 98.5812 438.159 96.748C437.005 83.147 433.929 69.4566 427.133 57.5098Z" fill="#180C01"/>
<path d="M450.973 59.4325C452.171 60.899 453.414 62.3477 454.63 63.8142C460.004 74.357 461.936 86.3753 462.276 98.1164C462.222 97.8034 462.106 97.1596 462.052 96.8466C461.587 94.2891 461.203 91.7227 460.908 89.1474C460.3 84.1487 459.11 79.2305 457.653 74.4195C456.902 72.5417 455.954 70.7533 455.024 68.9738C454.442 70.1005 453.879 71.2272 453.325 72.3628C451.796 72.649 450.266 72.9441 448.746 73.2392C448.648 73.8651 448.451 75.135 448.344 75.761C447.467 72.345 445.688 69.0901 445.581 65.5132C447.888 63.9483 450.159 62.2582 450.973 59.4325Z" fill="#F8DCBE"/>
<path d="M570.012 264.566L570.486 263.296C571.738 269.216 570.951 275.279 571.21 281.27C571.201 313.596 570.959 345.94 571.147 378.275C571.237 382.281 570.745 386.323 571.281 390.32C572.56 393.396 574.68 396.07 575.735 399.271C573.866 396.472 571.925 393.718 570.039 390.928C569.967 390.812 569.824 390.58 569.752 390.463C569.717 383.14 569.949 375.807 569.654 368.483C570.065 333.85 569.448 299.181 570.012 264.566Z" fill="#F8DCBE"/>
<path d="M453.325 72.3628C453.879 71.2272 454.442 70.1005 455.024 68.9738C455.954 70.7533 456.902 72.5417 457.653 74.4195C455.766 76.1722 453.897 77.925 452.037 79.6866C451.063 79.633 450.096 79.5793 449.14 79.5346C448.871 78.2737 448.594 77.0218 448.344 75.761C448.451 75.135 448.648 73.8651 448.746 73.2392C450.266 72.9441 451.796 72.649 453.325 72.3628Z" fill="#EBBD8C"/>
<path d="M452.037 79.6866C453.897 77.925 455.766 76.1722 457.653 74.4195C459.11 79.2305 460.3 84.1487 460.908 89.1474C459.039 90.0773 457.233 91.5619 455.051 91.4903C453.513 91.1237 452.377 89.8807 451.08 89.0581C451.036 89.523 450.937 90.4619 450.892 90.9269C450.49 87.1086 449.927 83.2992 449.14 79.5346C450.096 79.5793 451.063 79.633 452.037 79.6866Z" fill="#D29E66"/>
<path d="M451.08 89.0581C452.377 89.8807 453.513 91.1237 455.051 91.4903C457.233 91.5619 459.039 90.0773 460.908 89.1474C461.203 91.7227 461.587 94.2891 462.052 96.8466C458.94 97.9822 455.891 99.2609 452.905 100.692C452.323 99.6991 451.742 98.7156 451.214 97.7051C451.08 95.4517 450.973 93.1893 450.892 90.9269C450.937 90.4619 451.036 89.523 451.08 89.0581Z" fill="#B58352"/>
<path d="M438.159 96.748C438.454 98.5812 438.856 100.406 439.25 102.23C442.782 101.55 445.545 99.2073 448.407 97.2042C448.434 98.7691 448.469 100.334 448.514 101.899C448.085 101.881 447.226 101.854 446.788 101.845C445.107 106.164 447.476 110.475 448.782 114.543C447.906 120.4 446.305 126.132 444.195 131.659C442.943 127.67 445.903 124.138 446.01 120.23C444.409 117.664 440.85 118.263 438.239 117.87C438.4 110.823 438.195 103.786 438.159 96.748Z" fill="#26170A"/>
<path d="M452.905 100.692C455.891 99.2609 458.94 97.9822 462.052 96.8466C462.106 97.1596 462.222 97.8034 462.276 98.1164C462.955 104.278 462.204 110.519 461.319 116.618C460.389 115.697 459.486 114.74 458.449 113.944C456.043 113.694 453.754 114.767 451.501 115.428C451.653 111.521 452.815 107.363 451.089 103.634C451.161 101.658 451.205 99.6813 451.214 97.7051C451.742 98.7156 452.323 99.6991 452.905 100.692Z" fill="#8D6239"/>
<path d="M622.27 470.469C624.219 474.762 626.347 478.991 627.724 483.516C626.893 482.058 625.999 480.654 625.122 479.25C618.425 479.554 611.727 479.42 605.038 479.581C604.94 480.306 604.734 481.754 604.627 482.47C604.162 485.152 602.847 487.585 601.595 489.972C601.792 486.064 603.482 482.479 604.832 478.875C611.217 478.991 617.602 478.553 623.996 478.812C623.79 478.329 623.387 477.364 623.182 476.872L624.067 476.934C623.45 474.779 622.896 472.615 622.27 470.469Z" fill="#8D6239"/>
<path d="M451.089 103.634C452.815 107.363 451.653 111.521 451.501 115.428C453.754 114.767 456.043 113.694 458.449 113.944C459.486 114.74 460.389 115.697 461.319 116.618C460.711 122.332 458.896 127.787 457.331 133.286C455.489 130.389 452.627 128.493 449.301 127.742C448.836 126.177 448.371 124.612 447.897 123.056C449.533 116.689 450.606 110.188 451.089 103.634Z" fill="#5A381E"/>
<path d="M435.011 122.358C434.886 124.496 434.654 126.642 433.974 128.681C432.963 131.694 432.087 134.753 431.497 137.882C434.672 138.204 438.033 138.821 439.706 141.906C438.597 144.053 437.398 146.145 436.156 148.211C433.956 146.091 431.291 144.589 428.448 143.525C429.503 140.887 430.245 138.124 430.576 135.307C431.765 130.916 433.133 126.508 435.011 122.358Z" fill="#8E613C"/>
<path d="M447.897 123.056C448.371 124.612 448.836 126.177 449.301 127.742C452.627 128.493 455.489 130.389 457.331 133.286C456.446 135.486 455.552 137.686 454.586 139.859C451.465 138.777 448.183 138.321 444.892 138.186C444.678 136.711 444.454 135.236 444.239 133.769C445.545 130.228 446.806 126.669 447.897 123.056Z" fill="#402613"/>
<path d="M431.497 137.882C432.087 134.753 432.963 131.694 433.974 128.681C436.326 130.523 439.402 130.791 441.977 132.222C441.593 134.377 441.351 136.541 441.181 138.723C440.707 139.796 440.215 140.851 439.706 141.906C438.033 138.821 434.672 138.204 431.497 137.882Z" fill="#6D492C"/>
<path d="M558.413 270.585C559.969 269.78 561.471 268.832 562.947 267.875C561.74 269.011 560.47 270.111 559.513 271.479C558.69 274.94 559.2 278.552 559.111 282.085C559.28 292.931 558.896 303.787 559.433 314.616C558.977 322.539 559.343 330.48 559.272 338.411C559.361 345.431 559.021 352.469 559.558 359.479C559.227 363.95 559.245 368.448 559.629 372.928C559.585 379.903 559.665 386.887 559.567 393.871C562.732 392.36 565.88 390.822 568.992 389.212C569.188 389.525 569.565 390.15 569.752 390.463C569.824 390.58 569.967 390.812 570.039 390.928C566.417 392.448 562.84 394.095 559.433 396.062L558.887 396.366C557.966 389.319 558.601 382.21 558.386 375.137C558.476 340.28 558.243 305.433 558.413 270.585Z" fill="#6D492C"/>
<path d="M444.239 133.769C444.454 135.236 444.678 136.711 444.892 138.186C448.183 138.321 451.465 138.777 454.586 139.859C451.823 146.082 448.594 152.082 444.803 157.734L444.597 157.644C442.666 156.804 440.788 155.838 438.767 155.266C437.229 155.606 435.843 156.384 434.43 157.019C433.992 156.464 433.115 155.347 432.677 154.783C437.363 148.282 441.297 141.227 444.239 133.769Z" fill="#251407"/>
<path d="M430.576 135.307C430.245 138.124 429.503 140.887 428.448 143.525C431.291 144.589 433.956 146.091 436.156 148.211C434.331 151.233 432.149 154.005 430.03 156.813C428.76 156.992 427.5 157.188 426.239 157.394C424.433 156.616 422.653 155.811 420.874 154.989C422.537 152.118 424.155 149.203 425.202 146.037C426.65 142.309 428.689 138.83 430.576 135.307Z" fill="#AE7A4B"/>
<path d="M425.202 146.037C424.155 149.203 422.537 152.118 420.874 154.989C422.653 155.811 424.433 156.616 426.239 157.394C427.5 157.188 428.76 156.992 430.03 156.813C426.167 162.375 421.258 167.088 416.188 171.532C414.891 169.636 413.389 167.901 411.636 166.444C411.797 165.487 411.967 164.539 412.146 163.6L411.341 164.19C413.577 161.096 416.277 158.396 418.593 155.364C420.945 152.369 422.832 149.033 425.202 146.037Z" fill="#CD9765"/>
<path d="M397.633 185.24C411.404 177.899 423.726 167.624 432.677 154.783C433.115 155.347 433.992 156.464 434.43 157.019C435.843 156.384 437.229 155.606 438.767 155.266C440.788 155.838 442.666 156.804 444.597 157.644C439.196 165.657 432.445 172.748 424.728 178.569C419.979 182.137 415.169 185.812 409.696 188.218C406.262 189.121 402.533 191.339 399.037 189.514C398.572 188.084 398.098 186.662 397.633 185.24Z" fill="#170C02"/>
<path d="M411.341 164.19L412.146 163.6C411.967 164.539 411.797 165.487 411.636 166.444C413.389 167.901 414.891 169.636 416.188 171.532C413.192 174.197 409.964 176.593 406.584 178.739C405.064 177.031 403.123 175.851 400.932 175.225C401.684 174.053 402.417 172.873 403.204 171.728C405.573 168.885 408.48 166.515 411.341 164.19Z" fill="#DDAB79"/>
<path d="M395.961 177.121C398.026 174.894 400.611 173.258 403.204 171.728C402.417 172.873 401.684 174.053 400.932 175.225C403.123 175.851 405.064 177.031 406.584 178.739C398.375 184.31 389.307 188.629 379.864 191.661C378.103 190.865 376.35 190.051 374.625 189.202C381.671 185.07 390.542 183.729 395.961 177.121Z" fill="#E4B686"/>
<path d="M413.13 532.349C416.447 531.017 420.131 532.045 423.61 531.804C440.341 531.562 457.098 532.063 473.829 531.589C473.829 532.913 473.838 534.236 473.856 535.578L472.81 535.014C470.959 533.762 468.652 534.066 466.55 533.986C450.463 534.048 434.385 533.932 418.298 534.022C417.046 534.03 415.794 533.87 414.748 533.163C423.055 533.467 431.372 532.886 439.679 533.512C450.991 533.315 462.374 534.138 473.641 532.922C471.933 532.358 470.172 532.001 468.383 532.063C450.052 532.242 431.712 531.911 413.398 532.43L413.13 532.349Z" fill="#E4B686"/>
<path d="M382.771 183.988C387.269 181.896 391.606 179.481 395.961 177.121C390.542 183.729 381.671 185.07 374.625 189.202C376.35 190.051 378.103 190.865 379.864 191.661C374.302 193.476 368.678 195.238 362.856 195.998C363.187 196.212 363.849 196.651 364.189 196.874C360.88 197.473 357.581 198.108 354.227 198.332C344.552 196.275 334.51 199.422 324.897 196.731C325.773 195.89 326.542 194.647 327.955 194.79C333.329 194.334 338.721 194.817 344.114 194.746C346.161 194.817 348.003 193.825 349.846 193.038C354.191 191.732 358.859 191.831 363.259 190.605C369.867 188.763 376.61 187.1 382.771 183.988Z" fill="#F5D2AA"/>
<path d="M374.445 194.495C382.422 192.099 390.273 189.157 397.633 185.24C398.098 186.662 398.572 188.084 399.037 189.514C402.533 191.339 406.262 189.121 409.696 188.218C408.292 189.389 406.736 190.382 405.073 191.124C397.552 194.621 389.933 198.269 381.698 199.718C379.516 200.138 377.396 200.8 375.232 201.283L374.446 200.46C373.739 199.262 373.024 198.072 372.308 196.892C373.006 196.087 373.721 195.291 374.445 194.495Z" fill="#2F1C0D"/>
<path d="M296.997 193.279C300.744 192.626 304.554 193.029 308.327 193.029C322.17 193.02 336.012 192.761 349.846 193.038C348.003 193.825 346.161 194.817 344.114 194.746C338.721 194.817 333.329 194.334 327.955 194.79C326.542 194.647 325.773 195.89 324.897 196.731C334.51 199.422 344.552 196.275 354.227 198.332C351.536 198.582 348.835 198.806 346.144 198.984C345.187 198.975 344.23 198.984 343.291 198.993C331.496 199.646 319.46 198.126 307.907 201.059C305.618 199.387 303.284 197.777 300.986 196.132C299.671 195.157 298.321 194.227 296.997 193.279Z" fill="#FBE0C1"/>
<path d="M296.953 193.252L296.997 193.279C298.321 194.227 299.671 195.157 300.986 196.132C302.399 199.011 303.525 202.105 305.707 204.528C305.913 207.444 306.02 210.359 306.163 213.274C306.369 209.572 306.583 205.87 307.254 202.221C307.71 212.147 307.326 222.091 307.379 232.035C307.379 257.073 307.326 282.12 307.379 307.158C307.299 308.866 307.513 310.753 306.423 312.21C304.098 315.895 301.469 319.409 299.618 323.379C298.875 324.721 298.133 326.071 297.382 327.412C297.141 326.026 296.908 324.631 296.881 323.236C297.203 296.705 296.854 270.173 297.015 243.642C296.908 226.848 297.31 210.046 296.953 193.252Z" fill="#402816"/>
<path d="M364.189 196.874C367.64 196.266 371.047 195.408 374.445 194.495C373.721 195.291 373.006 196.087 372.308 196.892C373.024 198.072 373.739 199.262 374.446 200.46C374.356 200.8 374.159 201.47 374.07 201.81C374.589 201.855 375.644 201.953 376.172 201.998C371.736 202.052 367.676 204.403 363.196 204.028C358.779 203.912 354.353 204.162 349.944 203.831C352.627 201.998 355.953 201.998 359.065 201.613C358.761 200.907 358.466 200.192 358.18 199.485C354.183 200.263 349.971 200.719 346.144 198.984C348.835 198.806 351.536 198.582 354.227 198.332C357.581 198.108 360.88 197.473 364.189 196.874Z" fill="#1C0F03"/>
<path d="M300.986 196.132C303.284 197.777 305.618 199.387 307.907 201.059C319.46 198.126 331.496 199.646 343.291 198.993C343.506 199.44 343.953 200.317 344.167 200.755C336.343 201.381 328.501 200.755 320.667 201.095C322.456 201.452 324.244 201.801 326.05 202.15C325.988 202.517 325.872 203.241 325.809 203.607C324.468 204.761 323.153 205.941 321.865 207.149C320.497 207.444 319.147 207.757 317.824 208.195C316.044 207.363 314.291 206.487 312.61 205.485L311.931 204.904C311.68 204.698 311.179 204.287 310.938 204.072C310.124 203.42 309.293 202.785 308.488 202.141C308.211 201.917 307.656 201.452 307.379 201.229L307.254 202.221C306.583 205.87 306.369 209.572 306.163 213.274C306.02 210.359 305.913 207.444 305.707 204.528C303.525 202.105 302.399 199.011 300.986 196.132Z" fill="#241205"/>
<path d="M343.291 198.993C344.23 198.984 345.187 198.975 346.144 198.984C349.971 200.719 354.183 200.263 358.18 199.485C358.466 200.192 358.761 200.907 359.065 201.613C355.953 201.998 352.627 201.998 349.944 203.831C354.353 204.162 358.779 203.912 363.196 204.028C358.377 206.183 352.85 205.861 347.69 206.558C339.07 206.433 330.477 207.676 321.865 207.149C323.153 205.941 324.468 204.761 325.809 203.607C325.872 203.241 325.988 202.517 326.05 202.15C324.244 201.801 322.456 201.452 320.667 201.095C328.501 200.755 336.343 201.381 344.167 200.755C343.953 200.317 343.506 199.44 343.291 198.993Z" fill="#40240F"/>
<path d="M307.379 201.229C307.656 201.452 308.211 201.917 308.488 202.141C307.96 224.023 308.381 245.904 308.452 267.795C308.506 281.968 308.229 296.141 308.569 310.306C308.417 310.476 308.104 310.824 307.943 310.994C304.589 314.696 302.363 319.239 299.618 323.379C301.469 319.409 304.098 315.895 306.423 312.21C307.513 310.753 307.299 308.866 307.379 307.158C307.326 282.12 307.379 257.073 307.379 232.035C307.326 222.091 307.71 212.147 307.254 202.221L307.379 201.229Z" fill="#FBE4CA"/>
<path d="M452.949 253.138C469.421 253.12 485.901 253.138 502.382 253.138C504.85 253.183 507.38 252.843 509.813 253.415C517.852 255.973 526.526 252.924 534.645 255.195C536.63 255.803 538.562 256.59 540.511 257.332C540.609 257.904 540.806 259.058 540.896 259.639C531.318 260.274 521.732 258.986 512.164 259.738C503.267 260.426 494.351 259.738 485.454 259.523C485.633 257.913 485.821 256.313 485.999 254.712C478.399 254.086 470.789 254.623 463.179 254.667C469.573 256.733 475.948 259.058 482.745 259.29C481.305 259.684 479.901 260.167 478.515 260.694C469.912 259.094 461.704 255.776 453.047 254.506L452.949 253.138Z" fill="#FBE4CA"/>
<path d="M604.832 478.875C605.145 478.303 605.771 477.149 606.084 476.577C611.781 476.756 617.486 476.469 623.182 476.872C623.387 477.364 623.79 478.329 623.996 478.812C617.602 478.553 611.217 478.991 604.832 478.875Z" fill="#FBE4CA"/>
<path d="M308.488 202.141C309.293 202.785 310.124 203.42 310.938 204.072C310.786 207.819 311.028 211.727 309.507 215.25C308.014 218.684 309.767 222.315 310.133 225.793C311.341 231.614 309.445 237.659 311.162 243.409C312.458 248.462 311.466 253.702 311.779 258.843C311.85 262.537 312.637 266.167 313.603 269.717C314.631 268.429 315.669 267.142 316.706 265.863C316.688 268.653 316.706 271.443 316.724 274.242C315.677 273.312 314.631 272.382 313.594 271.452C311.832 278.543 311.788 285.885 311.546 293.146C311.358 298.949 312.682 304.949 310.625 310.556C312.494 311.263 314.381 311.96 316.268 312.658C316.581 311.03 316.929 309.42 317.171 307.793C317.269 310.172 317.457 312.55 317.654 314.929C314.399 313.659 311.207 312.237 307.943 310.994C308.104 310.824 308.417 310.476 308.569 310.306C308.229 296.141 308.506 281.968 308.452 267.795C308.381 245.904 307.96 224.023 308.488 202.141Z" fill="#DAA16B"/>
<path d="M668.456 467.456C672.382 469.119 676.585 470.022 680.537 471.632C676.37 470.755 671.881 470.219 668.456 467.456Z" fill="#DAA16B"/>
<path d="M310.938 204.072C311.179 204.287 311.68 204.698 311.931 204.904C312.431 208.57 312.423 212.273 312.816 215.948C312.816 218.031 314.828 219.176 316.053 220.58C316.706 219.525 317.359 218.461 317.976 217.388C317.949 218.085 317.895 219.48 317.868 220.177C317.672 226.5 316.778 232.777 316.813 239.108C316.795 248.024 316.849 256.948 316.706 265.863C315.669 267.142 314.631 268.429 313.603 269.717C312.637 266.167 311.85 262.537 311.779 258.843C311.466 253.702 312.458 248.462 311.162 243.409C309.445 237.659 311.341 231.614 310.133 225.793C309.767 222.315 308.014 218.684 309.507 215.25C311.028 211.727 310.786 207.819 310.938 204.072Z" fill="#C7925C"/>
<path d="M311.931 204.904L312.61 205.485C314.032 209.214 315.365 212.997 317.556 216.368C317.663 216.627 317.868 217.128 317.976 217.388C317.359 218.461 316.706 219.525 316.053 220.58C314.828 219.176 312.816 218.031 312.816 215.948C312.423 212.273 312.431 208.57 311.931 204.904Z" fill="#AB7A4C"/>
<path d="M312.61 205.485C314.291 206.487 316.044 207.363 317.824 208.195C318.038 210.922 317.958 213.667 317.556 216.368C315.365 212.997 314.032 209.214 312.61 205.485Z" fill="#7E5632"/>
<path d="M316.813 239.108C316.778 232.777 317.672 226.5 317.868 220.177C318.012 236.658 317.859 253.148 317.975 269.628C317.841 284.722 318.217 299.852 317.654 314.929C317.457 312.55 317.269 310.172 317.171 307.793C316.581 296.615 316.858 285.429 316.724 274.242C316.706 271.443 316.688 268.653 316.706 265.863C316.849 256.948 316.795 248.024 316.813 239.108Z" fill="#F6CB96"/>
<path d="M403.374 451.816C404.947 451.7 406.539 451.602 408.131 451.512C407.684 457.208 408.864 463.128 407.415 468.672C407.192 469.182 406.754 470.219 406.53 470.738L406.316 471.31C406.441 471.552 406.691 472.026 406.816 472.267C406.995 472.616 407.362 473.313 407.541 473.662C408.497 479.045 407.925 484.625 408.015 490.089C407.174 489.338 406.351 488.604 405.52 487.871C405.663 476.649 405.377 465.435 405.484 454.213C405.064 453.73 404.205 452.764 403.776 452.272L403.374 451.816Z" fill="#F6CB96"/>
<path d="M509.813 253.415C525.193 252.628 540.618 253.273 556.008 253.076C563.984 253.094 571.979 252.727 579.946 253.299C579.606 253.639 578.927 254.301 578.587 254.641C577.201 255.964 575.752 257.225 574.348 258.531C572.122 258.611 569.886 258.87 567.678 258.647C565.8 257.949 564.217 256.572 562.268 256.107C559.165 256.867 556.75 259.648 553.388 259.452C549.221 259.532 545.054 259.416 540.896 259.639C540.806 259.058 540.609 257.904 540.511 257.332C538.562 256.59 536.63 255.803 534.645 255.195C526.526 252.924 517.852 255.973 509.813 253.415Z" fill="#FDEDDB"/>
<path d="M0.214801 451.843C5.75002 451.798 11.2942 451.664 16.8383 451.762C21.5688 451.932 26.0309 454.758 27.8998 459.167C27.8462 460.526 27.7746 461.885 27.6763 463.253C26.5227 461.563 25.4318 459.828 24.2514 458.165C23.4824 457.101 22.5703 456.171 21.6403 455.268C21.2916 454.919 20.5941 454.221 20.2453 453.873C14.2183 453.068 8.13758 453.417 2.08372 453.461C1.78862 453.354 1.20738 453.148 0.921228 453.05L0.214801 451.843Z" fill="#FDEDDB"/>
<path d="M244.122 452.782C245.177 451.459 247.628 451.181 248.897 452.147C254.2 464.04 258.787 476.264 264.394 488.023L263.92 488.238C263.473 488.435 262.57 488.846 262.114 489.052C261.667 488.175 261.238 487.299 260.835 486.423C260.12 482.729 258.591 479.287 256.57 476.121L256.337 475.62C254.799 470.765 252.787 466.061 250.301 461.617L250.06 461.071C248.692 457.915 247.941 453.819 244.122 452.782Z" fill="#FDEDDB"/>
<path d="M612.899 451.718C614.428 451.691 615.975 451.682 617.522 451.673C621.501 462.994 626.303 474.011 630.801 485.135C630.953 486.449 632.884 487.943 632.196 489.159L631.776 489.418C628.968 488.971 628.717 485.626 627.724 483.516C626.347 478.991 624.219 474.762 622.27 470.469L622.082 470.005C620.741 465.301 618.836 460.785 616.949 456.287C616.368 454.588 614.982 453.426 613.65 452.335L612.899 451.718Z" fill="#FDEDDB"/>
<path d="M579.946 253.299C580.429 256.912 580.286 260.561 580.259 264.2C580.304 307.427 580.214 350.653 580.286 393.88C579.955 397.636 581.207 401.776 579.392 405.254C579.15 404.852 578.658 404.038 578.408 403.636C579.204 401.373 579.561 398.986 579.517 396.598C579.731 359.336 579.517 322.074 578.98 284.812C578.792 274.761 579.598 264.656 578.587 254.641C578.927 254.301 579.606 253.639 579.946 253.299Z" fill="#DEAD79"/>
<path d="M393.609 337.517C393.126 336.212 392.84 334.87 392.723 333.493C395.191 337.562 397.293 341.836 399.859 345.851L399.886 346.075C399.931 346.397 400.029 347.041 400.074 347.362C400.592 348.927 401.317 350.43 401.782 352.03C400.467 353.801 398.813 355.276 397.328 356.895C396.989 356.636 396.309 356.126 395.969 355.875C394.145 353.416 392.312 350.957 390.622 348.409C392.598 346.728 394.61 345.1 396.676 343.526C395.674 341.505 394.601 339.529 393.609 337.517Z" fill="#DEAD79"/>
<path d="M452.252 254.417L453.047 254.506C461.704 255.776 469.912 259.094 478.515 260.694C479.865 260.936 481.233 261.079 482.628 261.115C508.731 260.99 534.833 260.909 560.935 261.267C556.232 264.576 550.258 263.288 544.893 263.494C544.795 265.13 544.696 266.757 544.607 268.403C548.568 268.787 552.547 269.181 556.419 270.191C533.036 270.227 509.634 270.138 486.25 270.299C482.414 270.039 478.13 270.862 474.795 268.492C467.158 264.012 459.522 259.479 452.252 254.417Z" fill="#281607"/>
<path d="M463.179 254.667C470.789 254.623 478.399 254.086 485.999 254.712C485.821 256.313 485.633 257.913 485.454 259.523C484.783 259.46 483.424 259.344 482.745 259.29C475.948 259.058 469.573 256.733 463.179 254.667Z" fill="#F9D7AF"/>
<path d="M574.348 258.531C575.752 257.225 577.201 255.964 578.587 254.641C579.598 264.656 578.792 274.761 578.98 284.812C579.517 322.074 579.731 359.336 579.517 396.598C579.561 398.986 579.204 401.373 578.408 403.636C577.487 402.187 576.584 400.747 575.735 399.271C574.68 396.07 572.56 393.396 571.281 390.32C570.745 386.323 571.237 382.281 571.147 378.275C571.916 380.859 572.739 383.435 573.481 386.037C576.271 380.279 574.161 373.956 574.858 367.903C575.144 364.066 574.885 360.212 575.153 356.376C576.826 339.985 574.858 323.442 576.459 307.042C576.593 304.556 576.271 302.097 576.226 299.62C576.182 294.344 577.604 289.175 577.648 283.909C577.112 281.476 575.591 279.276 575.663 276.728C575.726 273.321 577.335 270.209 577.684 266.856C577.836 264.799 576.369 262.76 574.527 261.973C573.141 262 571.8 262.286 570.45 262.492C571.72 261.142 572.998 259.8 574.348 258.531Z" fill="#B37D4E"/>
<path d="M553.388 259.452C556.75 259.648 559.165 256.867 562.268 256.107C564.217 256.572 565.8 257.949 567.678 258.647C569.886 258.87 572.122 258.611 574.348 258.531C572.998 259.8 571.72 261.142 570.45 262.492C570.459 262.689 570.477 263.1 570.486 263.296L570.012 264.566C567.866 261.687 564.315 261.017 560.935 261.267C534.833 260.909 508.731 260.99 482.628 261.115C481.233 261.079 479.865 260.936 478.515 260.694C479.901 260.167 481.305 259.684 482.745 259.29C483.424 259.344 484.783 259.46 485.454 259.523C494.351 259.738 503.267 260.426 512.164 259.738C521.732 258.986 531.318 260.274 540.896 259.639C545.054 259.416 549.221 259.532 553.388 259.452Z" fill="#FCF5F0"/>
<path d="M667.24 462.842C667.535 463.074 668.125 463.539 668.42 463.772C673.813 469.817 684.105 467.223 688.692 474.377C688.692 475.155 688.701 476.702 688.71 477.48C688.263 477.087 687.378 476.309 686.931 475.915C685.142 474.028 683.041 472.41 680.537 471.632C676.585 470.022 672.382 469.119 668.456 467.456C667.634 466.723 666.963 465.846 666.426 464.907C666.623 464.389 667.034 463.36 667.24 462.842Z" fill="#FCF5F0"/>
<path d="M560.935 261.267C564.315 261.017 567.866 261.687 570.012 264.566C569.448 299.181 570.065 333.85 569.654 368.483C569.001 365.953 568.554 363.369 568.554 360.758C568.295 347.094 568.411 333.43 568.205 319.776C567.982 320.375 567.535 321.573 567.311 322.172C565.719 321.555 564.163 320.714 562.446 320.625C560.721 323.889 561.749 327.904 560.899 331.454C559.844 325.874 561.364 320.044 559.433 314.616C558.896 303.787 559.28 292.931 559.111 282.085C559.2 278.552 558.69 274.94 559.513 271.479C560.47 270.111 561.74 269.011 562.947 267.875C561.471 268.832 559.969 269.78 558.413 270.585C557.912 270.487 556.911 270.29 556.419 270.191C552.547 269.181 548.568 268.787 544.607 268.403C544.696 266.757 544.795 265.13 544.893 263.494C550.258 263.288 556.232 264.576 560.935 261.267Z" fill="#1B0E03"/>
<path d="M570.45 262.492C571.8 262.286 573.141 262 574.527 261.973C576.369 262.76 577.836 264.799 577.684 266.856C577.335 270.209 575.726 273.321 575.663 276.728C575.591 279.276 577.112 281.476 577.648 283.909C577.604 289.175 576.182 294.344 576.226 299.62C576.271 302.097 576.593 304.556 576.459 307.042C574.858 323.442 576.826 339.985 575.153 356.376C574.885 360.212 575.144 364.066 574.858 367.903C574.161 373.956 576.271 380.279 573.481 386.037C572.739 383.435 571.916 380.859 571.147 378.275C570.959 345.94 571.201 313.596 571.21 281.27C570.951 275.279 571.738 269.216 570.486 263.296C570.477 263.1 570.459 262.689 570.45 262.492Z" fill="#CD935D"/>
<path d="M78.6288 461.59C81.5887 467.885 84.6382 474.199 86.5876 480.896C86.3103 480.413 85.747 479.448 85.4609 478.965C84.9064 478.983 83.7797 479.027 83.2164 479.045C80.9808 478.992 78.7453 478.822 76.5097 478.768C78.4233 478.643 80.337 478.446 82.2595 478.285L82.2325 476.819C82.8764 477.087 84.164 477.641 84.8079 477.918C83.1267 472.33 80.0953 467.259 78.6288 461.59Z" fill="#CD935D"/>
<path d="M380.24 269.628C380.652 269.172 381.483 268.251 381.904 267.795C381.895 268.555 381.886 270.075 381.886 270.835C381.331 271.425 380.813 272.033 380.303 272.659C377.987 276.138 376.073 279.876 374.017 283.506C372.613 285.84 372.317 288.594 372.416 291.268C372.872 297.599 373.444 303.948 374.714 310.181C376.565 320.321 380.231 330.113 385.159 339.153C385.838 340.441 386.509 341.738 387.224 343.016C388.288 344.859 389.441 346.638 390.622 348.409C392.312 350.957 394.145 353.416 395.969 355.875L396.193 357.637C394.083 355.044 392.053 352.379 390.265 349.553C382.342 337.875 376.547 324.712 373.82 310.842C372.157 303.063 371.575 295.104 371.271 287.163C373.113 280.761 377.942 275.834 380.24 269.628Z" fill="#F8F3E8"/>
<path d="M541.155 451.878C546.395 451.619 551.644 451.503 556.884 451.637C561.945 451.771 567.481 454.758 568.777 459.962C568.563 460.373 568.116 461.187 567.892 461.599C566.989 460.409 566.14 459.211 565.21 458.067C563.394 455.786 560.649 454.177 557.689 454.159C553.29 453.998 548.872 454.364 544.473 454.087C543.596 453.792 542.738 453.452 541.915 453.095L541.155 451.878Z" fill="#F8F3E8"/>
<path d="M367.971 279.133C372.067 275.977 375.769 272.266 380.24 269.628C377.942 275.834 373.113 280.761 371.271 287.163C369.393 286.904 367.515 286.609 365.647 286.376C363.912 286.135 362.168 285.92 360.442 285.724C362.177 282.755 365.503 281.378 367.971 279.133Z" fill="#E7B889"/>
<path d="M313.594 271.452C314.631 272.382 315.677 273.312 316.724 274.242C316.858 285.429 316.581 296.615 317.171 307.793C316.929 309.42 316.581 311.03 316.268 312.658C314.381 311.96 312.494 311.263 310.625 310.556C312.682 304.949 311.358 298.949 311.546 293.146C311.788 285.885 311.832 278.543 313.594 271.452Z" fill="#C8935D"/>
<path d="M380.303 272.659C380.813 272.033 381.331 271.425 381.886 270.835C382.154 283.551 381.376 296.445 384.416 308.929C385.4 313.507 387.018 317.925 387.903 322.53C384.192 316.959 384.487 309.966 381.626 304.046C379.525 306.309 377.593 308.875 374.714 310.181C373.444 303.948 372.872 297.599 372.416 291.268C373.981 292.037 375.536 293.709 377.432 293.164C379.373 292.386 381.331 290.651 381.116 288.362C381.081 283.13 381.805 277.756 380.303 272.659Z" fill="#C08C59"/>
<path d="M380.303 272.659C381.805 277.756 381.081 283.13 381.116 288.362C381.331 290.651 379.373 292.386 377.432 293.164C375.536 293.709 373.981 292.037 372.416 291.268C372.317 288.594 372.613 285.84 374.017 283.506C376.073 279.876 377.987 276.138 380.303 272.659Z" fill="#D29A65"/>
<path d="M360.138 285.688L360.442 285.724C362.168 285.92 363.912 286.135 365.647 286.376C364.296 286.394 362.955 286.466 361.632 286.528C362.562 291.437 361.632 296.472 362.445 301.381C363.903 302.302 365.611 302.794 366.97 303.885C368.276 305.217 369.045 306.943 369.93 308.571C369.295 310.198 368.07 311.897 368.732 313.721C369.429 317.137 373.82 317.808 374.768 321.108C375.653 323.62 376.842 326.232 376.672 328.959C375.447 330.926 372.988 331.91 371.996 334.002C371.924 336.202 372.318 338.375 372.711 340.53C366.147 329.576 363.277 316.86 361.023 304.422C360.406 298.207 359.36 291.938 360.138 285.688Z" fill="#352010"/>
<path d="M361.632 286.528C362.955 286.466 364.296 286.394 365.647 286.376C367.515 286.609 369.393 286.904 371.271 287.163C371.575 295.104 372.157 303.063 373.82 310.842C376.547 324.712 382.342 337.875 390.265 349.553C386.401 347.801 382.816 350.608 379.427 352.11C377.066 348.328 374.249 344.742 372.711 340.53C372.318 338.375 371.924 336.202 371.996 334.002C372.988 331.91 375.447 330.926 376.672 328.959C376.842 326.232 375.653 323.62 374.768 321.108C373.82 317.808 369.429 317.137 368.732 313.721C368.07 311.897 369.295 310.198 369.93 308.571C369.045 306.943 368.276 305.217 366.97 303.885C365.611 302.794 363.903 302.302 362.445 301.381C361.632 296.472 362.562 291.437 361.632 286.528Z" fill="#221407"/>
<path d="M374.714 310.181C377.593 308.875 379.525 306.309 381.626 304.046C384.487 309.966 384.192 316.959 387.903 322.53C388.234 323.218 388.485 323.943 388.646 324.703C389.192 327.922 390.461 330.935 391.391 334.047C389.826 336.238 387.153 337.374 385.159 339.153C380.231 330.113 376.565 320.321 374.714 310.181Z" fill="#9F7046"/>
<path d="M299.618 323.379C302.363 319.239 304.589 314.696 307.943 310.994C311.207 312.237 314.399 313.659 317.654 314.929C312.789 318.354 307.639 321.367 303.069 325.195C301.531 326.67 299.376 326.974 297.382 327.412C298.133 326.071 298.875 324.721 299.618 323.379Z" fill="#1F1004"/>
<path d="M406.816 472.267C408.748 471.444 410.867 471.382 412.942 471.418C418.665 471.498 424.406 471.239 430.129 471.525C430.129 477.015 429.878 482.506 430.12 487.996L430.683 488.435C431.256 488.864 432.418 489.713 432.999 490.143C431.461 490.205 429.932 490.268 428.421 490.339C428.457 484.697 428.323 479.054 427.831 473.439C421.079 473.349 414.238 472.589 407.541 473.662C407.362 473.313 406.995 472.616 406.816 472.267Z" fill="#1F1004"/>
<path d="M559.433 314.616C561.364 320.044 559.844 325.874 560.899 331.454C561.749 327.904 560.721 323.889 562.446 320.625C564.163 320.714 565.719 321.555 567.311 322.172C567.535 321.573 567.982 320.375 568.205 319.776C568.411 333.43 568.295 347.094 568.554 360.758C568.554 363.369 569.001 365.953 569.654 368.483C569.949 375.807 569.717 383.14 569.752 390.463C569.565 390.15 569.188 389.525 568.992 389.212C568.831 388.202 568.715 387.2 568.643 386.189C568.455 380.663 568.59 375.137 568.232 369.619C566.506 368.824 564.789 368.01 563.081 367.187C562.285 367.625 561.516 368.064 560.738 368.52C560.622 365.47 560.211 362.448 559.558 359.479C559.021 352.469 559.361 345.431 559.272 338.411C559.343 330.48 558.977 322.539 559.433 314.616Z" fill="#281608"/>
<path d="M388.646 324.703C390.336 327.332 391.633 330.184 392.679 333.135L392.723 333.493C392.84 334.87 393.126 336.212 393.609 337.517C390.935 338.653 388.002 339.887 387.224 343.016C386.509 341.738 385.838 340.441 385.159 339.153C387.153 337.374 389.826 336.238 391.391 334.047C390.461 330.935 389.192 327.922 388.646 324.703Z" fill="#B58454"/>
<path d="M393.609 337.517C394.601 339.529 395.674 341.505 396.676 343.526C394.61 345.1 392.598 346.728 390.622 348.409C389.441 346.638 388.288 344.859 387.224 343.016C388.002 339.887 390.935 338.653 393.609 337.517Z" fill="#CD955D"/>
<path d="M256.337 475.62C254.799 470.765 252.787 466.061 250.301 461.617C251.804 466.481 253.887 471.149 256.337 475.62Z" fill="#CD955D"/>
<path d="M152.375 465.471C153.35 464.943 154.342 464.478 155.353 464.022C155.299 465.22 154.932 466.266 154.235 467.152C152.473 468.761 150.649 470.29 148.718 471.685C147.493 471.462 146.276 471.265 145.06 471.095C146.473 470.264 147.913 469.477 149.335 468.645C150.399 467.635 151.373 466.535 152.375 465.471Z" fill="#CD955D"/>
<path d="M400.074 347.362C400.029 347.041 399.931 346.397 399.886 346.075C401.925 348.784 403.776 351.627 405.779 354.373C404.876 355.884 404.196 357.681 402.632 358.638C401.12 359.756 399.144 359.318 397.409 359.38L397.195 359.371C396.944 358.942 396.444 358.075 396.193 357.637L395.969 355.875C396.309 356.126 396.989 356.636 397.328 356.895C398.813 355.276 400.467 353.801 401.782 352.03C401.317 350.43 400.592 348.927 400.074 347.362Z" fill="#F0CFA9"/>
<path d="M379.427 352.11C382.816 350.608 386.401 347.801 390.265 349.553C392.053 352.379 394.083 355.044 396.193 357.637C396.444 358.075 396.944 358.942 397.195 359.371C394.297 360.856 391.534 362.564 388.637 364.03C385.221 360.337 382.19 356.304 379.427 352.11Z" fill="#2B1809"/>
<path d="M402.632 358.638C404.196 357.681 404.876 355.884 405.779 354.373C407.97 357.574 410.626 360.418 413.121 363.378C410.626 364.943 408.095 366.454 405.538 367.911C402.721 365.166 400.181 362.161 397.409 359.38C399.144 359.318 401.12 359.756 402.632 358.638Z" fill="#FCF0E3"/>
<path d="M126.997 451.932C132.282 451.602 137.576 451.771 142.869 451.691C147.931 451.53 152.867 454.544 154.906 459.211C154.709 459.9 154.324 461.286 154.128 461.974C153.18 460.678 152.259 459.372 151.275 458.111C150.068 456.538 148.44 455.339 146.706 454.418C141.233 452.576 135.367 453.596 129.724 453.676C129.152 453.309 128.008 452.585 127.435 452.227L126.997 451.932Z" fill="#FCF0E3"/>
<path d="M142.539 474.663C143.227 474.771 144.604 474.967 145.284 475.075C148.619 479.975 152.169 484.732 155.299 489.776L154.897 489.633C153.672 489.203 152.464 488.792 151.257 488.372C148.458 483.731 145.15 479.421 142.539 474.663Z" fill="#FCF0E3"/>
<path d="M556.053 474.351C557.179 474.726 558.306 475.146 559.433 475.611C562.41 479.77 564.816 484.393 568.455 488.05L567.982 488.256C567.508 488.47 566.542 488.899 566.068 489.114C562.008 484.741 559.12 479.43 556.053 474.351Z" fill="#FCF0E3"/>
<path d="M397.195 359.371L397.409 359.38C400.181 362.161 402.721 365.166 405.538 367.911C406.271 368.645 407.022 369.378 407.791 370.102C406.208 371.721 405.126 373.697 404.947 375.977C403.32 375.745 401.701 375.521 400.109 375.226C395.665 372.266 392.303 367.875 388.637 364.03C391.534 362.564 394.297 360.856 397.195 359.371Z" fill="#3D2311"/>
<path d="M559.558 359.479C560.211 362.448 560.622 365.47 560.738 368.52C561.516 368.064 562.285 367.625 563.081 367.187C564.789 368.01 566.506 368.824 568.232 369.619C568.59 375.137 568.455 380.663 568.643 386.189C565.022 386.109 563.225 382.898 561.016 380.573C560.569 378.016 560.058 375.477 559.629 372.928C559.245 368.448 559.227 363.95 559.558 359.479Z" fill="#452813"/>
<path d="M405.538 367.911C408.095 366.454 410.626 364.943 413.121 363.378C423.064 373.357 434.448 382.112 447.307 387.978C455.623 392.547 464.592 395.847 473.785 398.145C473.194 398.771 472.604 399.406 472.032 400.041C473.15 400.622 474.276 401.203 475.412 401.785C472.738 401.454 470.065 401.176 467.382 401.016C458.645 399.263 450.213 396.178 442.076 392.583C429.601 386.86 417.842 379.5 407.791 370.102C407.022 369.378 406.271 368.645 405.538 367.911Z" fill="#FCFBFB"/>
<path d="M407.791 370.102C417.842 379.5 429.601 386.86 442.076 392.583C440.385 394.041 438.633 395.435 436.791 396.705L436.344 397.018C423.503 391.224 410.456 385.009 400.109 375.226C401.701 375.521 403.32 375.745 404.947 375.977C405.126 373.697 406.208 371.721 407.791 370.102Z" fill="#502D13"/>
<path d="M559.629 372.928C560.058 375.477 560.569 378.016 561.016 380.573C563.225 382.898 565.022 386.109 568.643 386.189C568.715 387.2 568.831 388.202 568.992 389.212C565.88 390.822 562.732 392.36 559.567 393.871C559.665 386.887 559.585 379.903 559.629 372.928Z" fill="#59351B"/>
<path d="M237.228 468.466C239.061 463.03 242.038 458.085 243.89 452.657L244.122 452.782C247.941 453.819 248.692 457.915 250.06 461.071C249.032 459.417 247.896 457.825 246.581 456.403C245.258 457.816 247.001 459.39 247.449 460.803C247.028 460.606 246.188 460.195 245.767 459.998C243.854 463.602 242.28 467.385 240.089 470.845C241.645 465.444 244.855 460.508 245.553 454.901C244.202 454.204 244.104 456.216 243.55 456.985C239.436 467.465 234.956 477.802 230.727 488.247C231.299 488.542 232.444 489.123 233.007 489.418C231.755 490.375 230.217 490.33 228.741 490.357C230.601 482.72 234.661 475.862 237.228 468.466Z" fill="#59351B"/>
<path d="M611.432 455.509C611.834 454.248 612.657 453.202 613.65 452.335C609.545 464.496 603.992 476.112 599.226 488.023C600.012 488.658 600.799 489.31 601.595 489.972C600.138 490.33 598.644 490.411 597.169 490.438C599.047 483.749 602.302 477.579 604.814 471.131C606.871 465.864 609.384 460.785 611.432 455.509Z" fill="#59351B"/>
<path d="M559.433 396.062C562.84 394.095 566.417 392.448 570.039 390.928C571.925 393.718 573.866 396.472 575.735 399.271C576.584 400.747 577.487 402.187 578.408 403.636C578.658 404.038 579.15 404.852 579.392 405.254L579.615 405.621C572.515 403.341 566.148 399.254 559.433 396.062Z" fill="#130A01"/>
<path d="M492.572 406.515C499.404 406.318 506.245 406.998 513.077 406.596C516.752 406.363 520.427 406.542 524.102 406.766C520.499 407.633 516.797 407.848 513.112 407.901C507.237 407.964 501.371 408.974 495.505 408.411C494.495 407.794 493.538 407.159 492.572 406.515Z" fill="#130A01"/>
<path d="M436.791 396.705C438.633 395.435 440.385 394.041 442.076 392.583C450.213 396.178 458.645 399.263 467.382 401.016L466.89 401.167C466.497 402.187 466.166 403.224 465.835 404.261C468.214 404.78 470.584 405.325 472.953 405.934C472.023 406.13 471.111 406.309 470.199 406.497C467.177 406.175 464.27 405.254 461.364 404.458C453.11 402.097 444.571 400.452 436.791 396.705Z" fill="#3E210C"/>
<path d="M473.785 398.145C488.271 402.348 503.428 403.913 518.46 404.172C520.812 404.458 523.772 403.242 525.596 405.281C505.968 406.837 486.098 405.531 466.89 401.167L467.382 401.016C470.065 401.176 472.738 401.454 475.412 401.785C474.276 401.203 473.15 400.622 472.032 400.041C472.604 399.406 473.194 398.771 473.785 398.145Z" fill="#FAF2DE"/>
<path d="M72.763 451.923C74.1759 451.816 75.5977 451.709 77.0195 451.611C80.1135 458.523 82.6978 465.65 85.7203 472.598C87.8664 478.5 90.8531 484.08 92.6684 490.107C91.5059 489.311 90.3523 488.542 89.1899 487.764C88.394 485.448 87.4728 483.177 86.5876 480.896C84.6382 474.199 81.5887 467.885 78.6288 461.59L78.4232 461.08C77.6363 458.702 76.7423 456.368 75.705 454.096C75.0165 453.596 74.3458 453.095 73.6751 452.603L72.763 451.923Z" fill="#FAF2DE"/>
<path d="M545.242 471.185C549.767 471.265 554.318 471.39 558.852 471.077C554.801 474.127 549.445 472.571 544.777 472.741C544.893 472.347 545.126 471.569 545.242 471.185Z" fill="#FAF2DE"/>
<path d="M465.835 404.261C466.166 403.224 466.497 402.187 466.89 401.167C486.098 405.531 505.968 406.837 525.596 405.281C525.22 405.647 524.478 406.39 524.102 406.766C520.427 406.542 516.752 406.363 513.077 406.596C506.245 406.998 499.404 406.318 492.572 406.515C493.538 407.159 494.495 407.794 495.505 408.411C487.046 408.617 478.533 407.91 470.199 406.497C471.111 406.309 472.023 406.13 472.953 405.934C470.584 405.325 468.214 404.78 465.835 404.261Z" fill="#341805"/>
<path d="M190.711 451.986C192.275 451.789 193.84 451.629 195.423 451.477C195.325 464.389 195.638 477.319 195.235 490.232C194.261 488.962 192.633 487.871 192.848 486.065C192.821 475.379 192.794 464.684 192.758 453.998C192.249 453.497 191.22 452.487 190.711 451.986Z" fill="#FCD6A5"/>
<path d="M506.173 461.975C507.086 464.89 508.633 468.154 507.595 471.203C507.184 471.874 506.782 472.544 506.388 473.224C505.977 471.158 505.556 469.102 505.1 467.054C504.939 466.338 504.778 465.641 504.6 464.943C505.127 463.96 505.655 462.967 506.173 461.975Z" fill="#FCD6A5"/>
<path d="M353.217 470.04C358.037 470.005 362.857 469.736 367.677 469.772C367.632 474.896 367.73 480.029 367.677 485.153L366.299 484.598C366.085 484.276 365.647 483.632 365.423 483.311C365.003 479.582 365.468 475.737 365.307 471.963C361.498 471.623 357.295 472.92 353.78 471.096L353.217 470.04Z" fill="#FCD6A5"/>
<path d="M342.129 454.561C346.341 450.931 352.269 450.895 357.5 451.61C354.424 451.414 351.357 451.789 348.352 452.406C354.209 453.193 360.54 453.542 365.253 457.584L366.085 458.299L365.271 457.932C361.203 455.697 356.883 453.47 352.081 453.953C347.226 453.712 343.086 456.573 339.768 459.801C339.75 459.399 339.705 458.603 339.688 458.21C339.786 456.698 341.145 455.589 342.129 454.561Z" fill="#F9D092"/>
<path d="M722.896 451.619C723.978 451.655 726.142 451.709 727.224 451.736L727.206 452.21C726.965 457.637 728.074 463.128 726.911 468.502C726.768 469.164 726.482 470.478 726.339 471.14C726.437 471.82 726.563 472.517 726.715 473.206C727.698 478.839 727.072 484.625 727.135 490.321C726.286 489.633 725.445 488.962 724.622 488.291C724.756 477.668 724.676 467.045 724.658 456.43C724.828 454.812 723.907 453.444 723.165 452.111L722.896 451.619Z" fill="#F9D092"/>
<path d="M428.063 451.915C429.736 451.673 431.417 451.548 433.116 451.441C432.901 464.344 433.08 477.239 432.999 490.143C432.418 489.713 431.256 488.864 430.683 488.435C430.835 476.935 430.433 465.435 430.719 453.945C431.14 453.632 431.98 453.006 432.4 452.693C431.971 451.441 430.192 452.022 429.208 451.924L428.063 451.915Z" fill="#F9D09D"/>
<path d="M2.08372 453.461C8.13758 453.417 14.2183 453.068 20.2453 453.873C20.5941 454.221 21.2916 454.919 21.6403 455.268C15.5149 453.211 8.94258 454.49 2.62045 454.15C3.14804 454.758 4.21216 455.983 4.7487 456.591C4.84706 461.492 5.08851 466.41 4.68611 471.301C4.24794 471.829 3.38055 472.884 2.95132 473.412H2.28959C2.0571 466.759 2.18208 460.105 2.08372 453.461Z" fill="#F9D09D"/>
<path d="M476.78 454.937C481.868 451.378 488.369 450.421 494.351 451.906C499.431 453.506 503.777 457.199 506.173 461.975C505.655 462.967 505.127 463.96 504.6 464.943C502.874 461.045 499.985 457.637 496.337 455.429C491.776 452.8 485.606 452.388 481.063 455.268C480.482 455.572 479.919 455.885 479.364 456.216C478.55 456.52 477.746 456.833 476.95 457.137C476.914 456.69 476.851 455.795 476.816 455.339L476.78 454.937Z" fill="#F9F8F9"/>
<path d="M747.058 452.039C748.533 451.664 750.054 451.628 751.583 451.539C751.565 464.532 751.449 477.525 751.449 490.518L751.225 490.321C750.384 489.588 749.553 488.854 748.739 488.139C749.007 476.791 748.632 465.444 748.766 454.105C748.337 453.586 747.487 452.549 747.058 452.039Z" fill="#F8CD97"/>
<path d="M673.964 486.145C677.121 486.387 680.278 485.742 683.086 484.267C683.667 484.929 684.266 485.581 684.883 486.243C680.761 488.64 675.726 489.481 671.183 487.826C673.928 487.987 676.683 487.764 679.437 487.496C677.604 487.039 675.771 486.628 673.964 486.145Z" fill="#F8CD97"/>
<path d="M786.395 451.95C787.924 451.745 789.444 451.566 791 451.414C790.768 464.291 791.358 477.212 790.571 490.071C789.82 489.311 789.078 488.569 788.336 487.835C788.38 476.515 788.309 465.194 788.38 453.882C787.879 453.399 786.887 452.433 786.395 451.95Z" fill="#FBD695"/>
<path d="M429.208 451.924C430.192 452.022 431.971 451.441 432.4 452.693C431.98 453.006 431.14 453.632 430.719 453.945L430.021 453.596C429.771 453.327 429.288 452.773 429.047 452.496L429.208 451.924Z" fill="#F6EAD3"/>
<path d="M666.596 454.91C668.027 453.551 669.771 452.576 671.666 452.031C671.327 452.415 670.656 453.175 670.316 453.56C675.36 453.211 681.056 452.603 685.16 456.225C680.564 453.873 674.376 452.639 669.976 456.001C667.875 457.423 668.331 460.052 668.367 462.234C668.384 462.618 668.411 463.387 668.42 463.772C668.125 463.539 667.535 463.074 667.24 462.842C667.034 463.36 666.623 464.389 666.426 464.907C664.996 461.688 665.675 458.147 666.596 454.91Z" fill="#F5C88E"/>
<path d="M541.915 453.095C542.738 453.452 543.596 453.792 544.473 454.087C544.687 454.74 545.126 456.046 545.34 456.698C546.082 461.482 546.047 466.41 545.242 471.185C545.126 471.569 544.893 472.347 544.777 472.741C549.445 472.571 554.801 474.127 558.852 471.077L559.603 470.612C560.086 470.639 561.069 470.693 561.552 470.72C561.534 471.14 561.507 471.998 561.489 472.419C556.133 474.672 550.195 473.384 544.571 473.572C546.735 478.732 545.411 484.446 545.76 489.874L545.161 489.543C544.624 489.248 543.551 488.64 543.015 488.345C543.319 476.979 542.908 465.605 543.221 454.239C542.89 453.953 542.237 453.381 541.915 453.095Z" fill="#F5C88E"/>
<path d="M151.275 458.111C152.259 459.372 153.18 460.678 154.128 461.974C154.324 461.286 154.709 459.9 154.906 459.211C155.031 460.812 155.174 462.412 155.353 464.022C154.342 464.478 153.35 464.943 152.375 465.471C152.518 462.967 152.384 460.401 151.275 458.111Z" fill="#F5C88E"/>
<path d="M727.206 452.21C727.967 457.476 727.645 462.913 727.484 468.243C733.797 468.422 740.173 468.779 746.459 467.948C747.613 462.824 746.423 457.306 747.058 452.039C747.487 452.549 748.337 453.586 748.766 454.105C748.632 465.444 749.007 476.791 748.739 488.139C749.553 488.854 750.384 489.588 751.225 490.321C749.767 490.285 748.337 490.25 746.915 490.223C746.817 484.589 746.96 478.947 746.853 473.322C740.137 473.277 733.421 473.17 726.715 473.206C726.563 472.517 726.437 471.82 726.339 471.14C733.743 471.256 741.148 471.131 748.561 471.051C747.926 470.183 747.3 469.325 746.683 468.475C740.092 468.744 733.493 468.556 726.911 468.502C728.074 463.128 726.965 457.637 727.206 452.21Z" fill="#2B0F03"/>
<path d="M541.119 452.424L541.915 453.095C542.237 453.381 542.89 453.953 543.221 454.239C542.908 465.605 543.319 476.979 543.015 488.345C543.551 488.64 544.624 489.248 545.161 489.543C543.882 490.187 542.47 490.249 541.102 490.375C540.95 483.829 540.288 477.292 540.735 470.747C541.325 464.639 540.332 458.514 541.119 452.424Z" fill="#2B0F03"/>
<path d="M664.835 458.227C665.389 457.101 665.952 455.983 666.596 454.91C665.675 458.147 664.996 461.688 666.426 464.907C666.963 465.846 667.634 466.723 668.456 467.456C671.881 470.219 676.37 470.755 680.537 471.632C683.041 472.41 685.142 474.028 686.931 475.915C686.957 478.151 686.716 480.404 685.983 482.532C685.724 482.666 685.205 482.935 684.937 483.069C685.527 480.35 685.017 477.247 682.531 475.647C677.56 472.785 670.951 473.304 666.713 469.056C663.851 466.24 663.923 461.858 664.835 458.227Z" fill="#2B0F03"/>
<path d="M246.581 456.403C247.896 457.825 249.032 459.417 250.06 461.071L250.301 461.617C251.804 466.481 253.887 471.149 256.337 475.62L256.57 476.121L257.187 477.784C256.311 477.596 254.567 477.203 253.691 477.006L252.85 476.792C247.655 476.631 242.45 476.711 237.246 476.774C237.702 475.969 238.122 475.137 238.525 474.324C238.533 474.789 238.542 475.719 238.542 476.184C243.487 476.72 248.468 476.488 253.422 476.353C251.983 470.979 249.836 465.82 247.449 460.803C247.001 459.39 245.258 457.816 246.581 456.403Z" fill="#2B0F03"/>
<path d="M0 452.701L0.921228 453.05C1.20738 453.148 1.78862 453.354 2.08372 453.461C2.18208 460.105 2.0571 466.759 2.28959 473.412L2.29814 473.653C2.13718 478.41 1.93151 483.167 2.16401 487.925C2.41439 488.157 2.9241 488.622 3.17448 488.855C3.559 489.212 4.33696 489.928 4.72148 490.285C3.16554 490.25 1.60066 490.223 0.0447137 490.205C-0.0983614 477.704 0.214613 465.203 0 452.701Z" fill="#280D03"/>
<path d="M2.62045 454.15C8.94258 454.49 15.5149 453.211 21.6403 455.268C22.5703 456.171 23.4824 457.101 24.2514 458.165C26.3171 462.18 25.8698 468.055 21.3898 470.21C24.6805 466.848 24.8057 459.793 19.9859 457.754C15.2107 456.046 10.0243 456.234 5.02557 456.314C5.03451 461.277 5.14181 466.249 5.34748 471.212L5.36537 471.346L4.68611 471.301C5.08851 466.41 4.84706 461.492 4.7487 456.591C4.21216 455.983 3.14804 454.758 2.62045 454.15Z" fill="#280D03"/>
<path d="M606.084 476.577C609.581 469.745 612.174 462.475 615.035 455.366C618.532 459.623 619.355 465.292 622.082 470.005L622.27 470.469C622.896 472.615 623.45 474.779 624.067 476.934L623.182 476.872C617.486 476.469 611.781 476.756 606.084 476.577ZM607.792 476.202C612.317 476.595 616.868 476.461 621.402 476.246C619.837 470.514 617.62 464.934 615.062 459.578C612.254 464.899 608.516 470.103 607.792 476.202Z" fill="#280D03"/>
<path d="M684.883 486.243C686.081 485.188 687.172 484.035 688.21 482.819C687.485 488.596 681.02 491.198 675.851 490.912C670.772 491.18 666.355 488.354 662.375 485.582C662.653 485.224 663.207 484.509 663.493 484.16C664.709 484.706 665.907 485.332 667.097 485.975C668.402 486.691 669.752 487.361 671.183 487.826C675.726 489.481 680.761 488.64 684.883 486.243Z" fill="#280D03"/>
<path d="M71.0724 456.207C71.5642 454.767 72.298 453.381 73.6751 452.603C71.4396 460.785 67.0752 468.261 65.2153 476.568C66.1542 475.522 67.0484 474.458 67.9158 473.367C67.8622 474.494 67.8264 475.629 67.8085 476.765C66.4403 476.926 63.1675 476.515 65.2779 478.536C68.8905 479.537 72.7808 478.652 76.5097 478.768C78.7453 478.822 80.9808 478.992 83.2164 479.045C76.9479 479.734 70.6521 479.224 64.3747 479.573C64.7503 480.601 65.4209 481.299 66.3867 481.656C64.0528 483.704 63.8382 486.932 62.4253 489.517C61.1913 490.938 59.0451 490.286 57.4177 490.625C61.3165 478.92 66.655 467.724 71.0724 456.207ZM60.0556 488.032C60.4401 488.184 61.2002 488.47 61.5847 488.613C62.4789 485.466 64.7681 482.416 64.0349 479.027C62.1212 481.621 61.5758 485.135 60.0556 488.032Z" fill="#794926"/>
<path d="M73.6751 452.603C74.3458 453.095 75.0165 453.596 75.705 454.096C76.7423 456.368 77.6363 458.702 78.4232 461.08C77.4485 459.229 76.7063 457.056 74.8373 455.921C74.2203 457.164 73.7106 458.46 73.2009 459.766C71.4751 464.308 69.284 468.681 67.9158 473.367C67.0484 474.458 66.1542 475.522 65.2153 476.568C67.0752 468.261 71.4396 460.785 73.6751 452.603Z" fill="#E5A565"/>
<path d="M496.337 455.429C491.776 452.8 485.606 452.388 481.063 455.268C486.035 453.73 491.409 453.605 496.337 455.429Z" fill="#E5A565"/>
<path d="M24.2514 458.165C25.4318 459.828 26.5227 461.563 27.6763 463.253C27.7746 461.885 27.8462 460.526 27.8998 459.167C28.2665 462.126 28.8835 465.605 26.6658 468.038C24.1531 470.613 21.1127 472.813 17.509 473.501C18.1528 473 18.7877 472.509 19.4226 472.008C14.7369 471.668 10.0421 471.605 5.36537 471.346L5.34748 471.212C10.6949 471.337 16.2391 472.026 21.3898 470.21C25.8698 468.055 26.3171 462.18 24.2514 458.165Z" fill="#E5A565"/>
<path d="M127.149 490.303C127.265 477.614 126.729 464.89 127.435 452.227C128.008 452.585 129.152 453.309 129.724 453.676C128.607 461.733 130.234 469.826 129.429 477.892C129.134 481.361 129.268 484.858 129.626 488.327C130.154 488.756 131.209 489.633 131.736 490.062C130.207 490.142 128.678 490.223 127.149 490.303Z" fill="#341C07"/>
<path d="M190.657 490.241C190.648 477.489 190.666 464.738 190.711 451.986C191.22 452.487 192.249 453.497 192.758 453.998C192.794 464.684 192.821 475.379 192.848 486.065C192.633 487.871 194.261 488.962 195.235 490.232C193.706 490.205 192.177 490.214 190.657 490.241Z" fill="#301A08"/>
<path d="M403.49 464.568C403.544 460.463 403.096 456.341 403.776 452.272C404.205 452.764 405.064 453.73 405.484 454.213C405.377 465.435 405.663 476.649 405.52 487.871C406.351 488.604 407.174 489.338 408.015 490.089C406.494 490.151 404.983 490.214 403.472 490.267C403.401 481.701 403.41 473.134 403.49 464.568Z" fill="#290F04"/>
<path d="M428.009 452.299L429.047 452.496C429.288 452.773 429.771 453.327 430.021 453.596C429.825 458.952 431.336 464.72 429.118 469.772L428.09 468.94C427.786 463.396 428.34 457.843 428.009 452.299Z" fill="#422A16"/>
<path d="M613.65 452.335C614.982 453.426 616.368 454.588 616.949 456.287C618.836 460.785 620.741 465.301 622.082 470.005C619.355 465.292 618.532 459.623 615.035 455.366C612.174 462.475 609.581 469.745 606.084 476.577C605.771 477.149 605.145 478.303 604.832 478.875C603.482 482.479 601.792 486.064 601.595 489.972C600.799 489.31 600.012 488.658 599.226 488.023C603.992 476.112 609.545 464.496 613.65 452.335Z" fill="#F3B273"/>
<path d="M243.55 456.985C244.104 456.216 244.202 454.204 245.553 454.901C244.855 460.508 241.645 465.444 240.089 470.845C239.553 471.99 239.025 473.152 238.525 474.324C238.122 475.137 237.702 475.969 237.246 476.774C236.843 477.462 236.432 478.151 236.02 478.848C242.548 478.768 249.085 478.571 255.613 478.634C254.978 478.071 254.334 477.534 253.691 477.006C254.567 477.203 256.311 477.596 257.187 477.784L256.57 476.121C258.591 479.287 260.12 482.729 260.835 486.423C259.664 483.981 258.599 481.504 257.553 479.009C250.301 479.367 243.049 479.135 235.806 479.224C235.26 482.461 234.125 485.564 233.23 488.721C233.177 488.891 233.069 489.239 233.007 489.418C232.444 489.123 231.299 488.542 230.727 488.247C234.956 477.802 239.436 467.465 243.55 456.985Z" fill="#F3B273"/>
<path d="M474.5 456.707C475.072 456.368 476.234 455.688 476.816 455.339C476.851 455.795 476.914 456.69 476.95 457.137C477.746 456.833 478.55 456.52 479.364 456.216C476.986 458.514 474.366 460.946 473.597 464.299C473.176 466.571 473.248 468.896 473.248 471.194C472.55 472.276 471.871 473.367 471.254 474.493C470.011 468.449 471.558 462.046 474.5 456.707Z" fill="#F3B273"/>
<path d="M688.692 474.377C689.73 476.443 689.72 478.759 689.631 481.021C689.157 481.62 688.683 482.22 688.21 482.819C687.172 484.035 686.081 485.188 684.883 486.243C684.266 485.581 683.667 484.929 683.086 484.267C683.551 483.972 684.481 483.364 684.937 483.069C685.205 482.935 685.724 482.666 685.983 482.532C686.716 480.404 686.957 478.151 686.931 475.915C687.378 476.309 688.263 477.087 688.71 477.48C688.701 476.702 688.692 475.155 688.692 474.377Z" fill="#F3B273"/>
<path d="M60.0556 488.032C61.5758 485.135 62.1212 481.621 64.0349 479.027C64.7681 482.416 62.4789 485.466 61.5847 488.613C61.2002 488.47 60.4401 488.184 60.0556 488.032Z" fill="#F3B273"/>
<path d="M722.664 456.493C722.646 455.008 722.87 453.551 723.165 452.111C723.907 453.444 724.828 454.812 724.658 456.43C724.676 467.045 724.756 477.668 724.622 488.291C725.445 488.962 726.286 489.633 727.135 490.321C725.642 490.375 724.148 490.384 722.681 490.402C722.601 479.099 722.726 467.796 722.664 456.493Z" fill="#39170A"/>
<path d="M786.395 451.95C786.887 452.433 787.879 453.399 788.38 453.882C788.309 465.194 788.38 476.515 788.336 487.835C789.078 488.569 789.82 489.311 790.571 490.071L790.884 490.384C789.945 490.491 788.067 490.697 787.119 490.795C785.894 487.54 786.448 484.017 786.377 480.619C786.341 471.06 786.35 461.51 786.395 451.95Z" fill="#39170A"/>
<path d="M481.063 455.268C486.035 453.73 491.409 453.605 496.337 455.429C499.985 457.637 502.874 461.045 504.6 464.943C504.778 465.641 504.939 466.338 505.1 467.054C505.807 471.945 505.064 477.212 501.595 480.958C501.335 481.012 500.808 481.137 500.548 481.2C505.413 473.876 503.911 462.77 496.14 458.075C489.263 453.864 479.436 456.698 475.43 463.593C473.051 466.946 473.328 471.256 473.731 475.137C473.471 473.84 473.337 472.499 473.248 471.194C473.248 468.896 473.176 466.571 473.597 464.299C474.366 460.946 476.986 458.514 479.364 456.216C479.919 455.885 480.482 455.572 481.063 455.268Z" fill="#39170A"/>
<path d="M669.976 456.001C674.376 452.639 680.564 453.873 685.16 456.225C686.35 457.253 687.968 456.77 688.156 455.134L688.46 454.901C687.861 456.493 687.011 459.068 684.919 458.853C682.531 457.771 680.358 455.849 677.577 456.09C674.465 455.876 671.72 457.476 669.172 459.014C668.903 460.079 668.635 461.152 668.367 462.234C668.331 460.052 667.875 457.423 669.976 456.001Z" fill="#39170A"/>
<path d="M561.489 472.419C564.262 470.961 566.568 468.744 568.357 466.195C567.972 471.122 563.752 474.154 559.433 475.611C558.306 475.146 557.179 474.726 556.053 474.351C559.12 479.43 562.008 484.741 566.068 489.114C566.542 488.899 567.508 488.47 567.982 488.256L568.688 487.96C568.384 490.679 564.986 490.947 563.197 489.624C559.746 485.099 556.866 480.163 553.477 475.593C550.929 475.62 548.389 475.665 545.858 475.719C545.787 480.431 546.028 485.161 545.76 489.874C545.411 484.446 546.735 478.732 544.571 473.572C550.195 473.384 556.133 474.672 561.489 472.419Z" fill="#39170A"/>
<path d="M412.727 532.233L413.13 532.349L413.398 532.43L414.748 533.163C415.794 533.87 417.046 534.03 418.298 534.022C434.385 533.932 450.463 534.048 466.55 533.986C468.652 534.066 470.959 533.762 472.81 535.014L473.266 536.373C453.083 536.472 432.901 536.543 412.718 536.329C412.709 534.96 412.718 533.592 412.727 532.233Z" fill="#39170A"/>
<path d="M129.724 453.676C135.367 453.596 141.233 452.576 146.706 454.418C141.197 453.792 135.653 454.239 130.136 454.105C130.449 454.767 131.075 456.09 131.388 456.743C132.13 461.527 131.629 466.374 131.683 471.185C136.145 471.238 140.598 471.149 145.06 471.095C146.276 471.265 147.493 471.462 148.718 471.685C143.012 474.359 136.512 472.902 130.449 473.233C130.646 473.778 131.057 474.851 131.263 475.388C132.291 480.181 131.531 485.188 131.736 490.062C131.209 489.633 130.154 488.756 129.626 488.327C129.268 484.858 129.134 481.361 129.429 477.892C130.234 469.826 128.607 461.733 129.724 453.676Z" fill="#FDE5B2"/>
<path d="M430.021 453.596L430.719 453.945C430.433 465.435 430.835 476.935 430.683 488.435L430.12 487.996C429.878 482.506 430.129 477.015 430.129 471.525C424.406 471.239 418.665 471.498 412.942 471.418C410.867 471.382 408.748 471.444 406.816 472.267C406.691 472.026 406.441 471.552 406.316 471.31L406.53 470.738C414.399 471.087 422.295 471.086 430.164 470.666C429.905 470.443 429.378 469.996 429.118 469.772C431.336 464.72 429.825 458.952 430.021 453.596Z" fill="#916340"/>
<path d="M130.136 454.105C135.653 454.239 141.197 453.792 146.706 454.418C148.44 455.339 150.068 456.538 151.275 458.111C152.384 460.401 152.518 462.967 152.375 465.471C151.373 466.535 150.399 467.635 149.335 468.645C151.123 465.193 151.248 460.105 147.501 457.897C142.503 455.554 136.717 456.198 131.388 456.743C131.075 456.09 130.449 454.767 130.136 454.105Z" fill="#240B03"/>
<path d="M339.768 459.801C343.086 456.573 347.226 453.712 352.081 453.953C356.883 453.47 361.203 455.697 365.271 457.932C364.538 458.8 363.813 459.668 363.08 460.535C360.031 458.648 356.678 456.887 352.984 457.012C347.512 457.191 342.057 459.99 338.909 464.496C338.57 467.894 338.883 471.328 338.373 474.726C338.57 469.763 336.96 464.272 339.768 459.801Z" fill="#1C0E05"/>
<path d="M469.224 467.161C469.805 463.181 472.64 460.132 474.5 456.707C471.558 462.046 470.011 468.449 471.254 474.493C472.434 479.778 475.94 484.678 481.037 486.789C484.873 488.702 489.29 488.55 493.422 487.88C500.236 486.324 505.055 480.511 507.452 474.225C506.674 476.666 506.191 479.224 505.064 481.549C502.131 486.663 496.677 490.401 490.712 490.688C485.347 490.822 479.642 489.579 475.537 485.948C470.556 481.218 467.936 473.966 469.224 467.161Z" fill="#300E05"/>
<path d="M337.246 461.885C337.89 460.552 338.793 459.372 339.688 458.21C339.705 458.603 339.75 459.399 339.768 459.801C336.96 464.272 338.57 469.763 338.373 474.726C339.088 479.644 343.014 483.543 347.476 485.394C350.204 486.252 353.02 486.789 355.819 487.397C353.638 487.603 351.447 487.817 349.256 487.907C342.952 486.673 337.407 481.692 336.12 475.307C334.957 470.827 335.914 466.204 337.246 461.885Z" fill="#FDF4DB"/>
<path d="M565.21 458.067C566.14 459.211 566.989 460.409 567.892 461.599C568.116 461.187 568.563 460.373 568.777 459.962C568.92 461.697 569.001 463.432 569.118 465.175L569.064 465.158C568.116 464.943 567.195 464.746 566.265 464.541C566.435 462.323 566.077 460.105 565.21 458.067Z" fill="#FAD69A"/>
<path d="M333.803 464.854C334.546 463.012 335.341 460.588 337.64 460.338L337.246 461.885C335.914 466.204 334.957 470.827 336.12 475.307C337.407 481.692 342.952 486.673 349.256 487.907C354.469 488.846 360.666 488.068 364.538 484.285C364.019 484.24 362.982 484.151 362.463 484.106C363.313 481.522 363.509 478.741 362.991 476.076C360.478 473.519 356.633 474.011 353.387 473.957C353.262 472.866 353.136 471.775 353.02 470.702L353.78 471.096C357.295 472.92 361.498 471.623 365.307 471.963C365.468 475.737 365.003 479.582 365.423 483.311C365.647 483.632 366.085 484.276 366.299 484.598C367.972 485.6 366.371 487.004 365.405 487.701C360.693 491.108 354.505 491.627 348.916 490.813C337.684 488.64 330.066 475.701 333.803 464.854Z" fill="#280F06"/>
<path d="M566.265 464.541C567.195 464.746 568.116 464.943 569.064 465.158L568.357 466.195C566.568 468.744 564.262 470.961 561.489 472.419C561.507 471.998 561.534 471.14 561.552 470.72C561.069 470.693 560.086 470.639 559.603 470.612C560.318 470.076 561.043 469.53 561.767 468.994C562.563 468.654 563.368 468.341 564.19 468.055C564.897 466.892 565.594 465.721 566.265 464.541Z" fill="#C7905A"/>
<path d="M148.718 471.685C150.649 470.29 152.473 468.761 154.235 467.152C153.296 471.417 149.478 474.395 145.284 475.075C144.604 474.967 143.227 474.771 142.539 474.663C145.15 479.421 148.458 483.731 151.257 488.372C152.464 488.792 153.672 489.203 154.897 489.633C153.332 490.124 151.392 490.813 149.907 489.812C145.955 485.725 144.148 480.083 140.321 475.907C137.361 475.227 134.258 475.88 131.263 475.388C131.057 474.851 130.646 473.778 130.449 473.233C136.512 472.902 143.012 474.359 148.718 471.685Z" fill="#341505"/>
<path d="M505.1 467.054C505.556 469.102 505.977 471.158 506.388 473.224C506.782 472.544 507.184 471.874 507.595 471.203C507.559 471.963 507.488 473.474 507.452 474.225C505.055 480.511 500.236 486.324 493.422 487.88C493.583 487.388 493.896 486.413 494.048 485.921C493.61 485.904 492.724 485.859 492.286 485.841C495.246 484.679 497.901 482.935 500.548 481.2C500.808 481.137 501.335 481.012 501.595 480.958C505.064 477.212 505.807 471.945 505.1 467.054Z" fill="#F0B878"/>
<path d="M17.509 473.501C21.1127 472.813 24.1531 470.613 26.6658 468.038C25.8074 472.053 22.1143 474.708 18.4123 475.924C14.0216 477.48 9.31804 476.622 4.79329 476.371C4.53397 475.781 4.00637 474.601 3.7381 474.011C7.86046 474.154 12.0007 474.27 16.1052 473.778C16.4539 473.707 17.1603 473.573 17.509 473.501Z" fill="#201008"/>
<path d="M406.53 470.738C406.754 470.219 407.192 469.182 407.415 468.672C414.301 468.842 421.222 468.395 428.09 468.94L429.118 469.772C429.378 469.996 429.905 470.443 430.164 470.666C422.295 471.086 414.399 471.087 406.53 470.738Z" fill="#F6E5C3"/>
<path d="M726.339 471.14C726.482 470.478 726.768 469.164 726.911 468.502C733.493 468.556 740.092 468.744 746.683 468.475C747.3 469.325 747.926 470.183 748.561 471.051C741.148 471.131 733.743 471.256 726.339 471.14Z" fill="#F7EACF"/>
<path d="M2.95132 473.412C3.38055 472.884 4.24794 471.829 4.68611 471.301L5.36537 471.346C10.0421 471.605 14.7369 471.668 19.4226 472.008C18.7877 472.509 18.1528 473 17.509 473.501C17.1603 473.573 16.4539 473.707 16.1052 473.778C11.7145 473.912 7.32405 473.626 2.95132 473.412Z" fill="#F5D9AF"/>
<path d="M471.254 474.493C471.871 473.367 472.55 472.276 473.248 471.194C473.337 472.499 473.471 473.84 473.731 475.137C474.974 478.893 477.648 482.166 481.135 484.07C484.471 486.163 488.521 485.841 492.286 485.841C492.724 485.859 493.61 485.904 494.048 485.921C493.896 486.413 493.583 487.388 493.422 487.88C489.29 488.55 484.873 488.702 481.037 486.789C475.94 484.678 472.434 479.778 471.254 474.493Z" fill="#F9F2DC"/>
<path d="M413.398 532.43C431.712 531.911 450.052 532.242 468.383 532.063C470.172 532.001 471.933 532.358 473.641 532.922C462.374 534.138 450.991 533.315 439.679 533.512C431.372 532.886 423.055 533.467 414.748 533.163L413.398 532.43Z" fill="#F9F2DC"/>
<path d="M2.28959 473.412H2.95132C7.32405 473.626 11.7145 473.912 16.1052 473.778C12.0007 474.27 7.86046 474.154 3.7381 474.011C4.00637 474.601 4.53397 475.781 4.79329 476.371C5.85741 480.878 5.40109 485.725 4.72148 490.285C4.33696 489.928 3.559 489.212 3.17448 488.855L4.39969 489.409C4.09565 484.151 5.74983 478.205 2.29814 473.653L2.28959 473.412Z" fill="#AA825C"/>
<path d="M2.29814 473.653C5.74983 478.205 4.09565 484.151 4.39969 489.409L3.17448 488.855C2.9241 488.622 2.41439 488.157 2.16401 487.925C1.93151 483.167 2.13718 478.41 2.29814 473.653Z" fill="#F6D09A"/>
<path d="M65.2779 478.536C63.1675 476.515 66.4403 476.926 67.8085 476.765C72.6104 476.863 77.4216 476.801 82.2325 476.819L82.2595 478.285C80.337 478.446 78.4233 478.643 76.5097 478.768C72.7808 478.652 68.8905 479.537 65.2779 478.536Z" fill="#F5DBB8"/>
<path d="M237.246 476.774C242.45 476.711 247.655 476.631 252.85 476.792L253.691 477.006C254.334 477.534 254.978 478.071 255.613 478.634C249.085 478.571 242.548 478.768 236.02 478.848C236.432 478.151 236.843 477.462 237.246 476.774Z" fill="#F5DDB6"/>
<path d="M83.2164 479.045C83.7797 479.027 84.9064 478.983 85.4609 478.965C85.747 479.448 86.3103 480.413 86.5876 480.896C87.4728 483.177 88.394 485.448 89.1899 487.764C90.3523 488.542 91.5059 489.311 92.6684 490.107C91.2555 490.16 89.8335 490.259 88.4207 490.196C86.4623 487.406 85.4608 484.106 83.9406 481.084C78.0924 481.102 72.1991 480.735 66.3867 481.656C65.4209 481.299 64.7503 480.601 64.3747 479.573C70.6521 479.224 76.9479 479.734 83.2164 479.045Z" fill="#290E05"/>
<path d="M235.806 479.224C243.049 479.135 250.301 479.367 257.553 479.009C258.599 481.504 259.664 483.981 260.835 486.423C261.238 487.299 261.667 488.175 262.114 489.052C262.57 488.846 263.473 488.435 263.92 488.238L264.233 488.112C264.305 488.586 264.466 489.543 264.537 490.017C263.437 489.99 262.346 489.972 261.255 489.963C258.215 486.726 256.489 480.556 251.133 480.95C245.902 480.851 240.814 482.202 235.654 482.872C234.885 484.831 234.107 486.798 233.23 488.721C234.125 485.564 235.26 482.461 235.806 479.224Z" fill="#120C09"/>
<path d="M605.038 479.581C611.727 479.42 618.425 479.554 625.122 479.25C625.999 480.654 626.893 482.058 627.724 483.516C628.717 485.626 628.968 488.971 631.776 489.418L632.196 489.159L632.813 488.801C632.848 491.502 629.584 490.008 627.966 490.089C626.508 487.084 625.453 483.784 623.28 481.2C617.039 480.44 610.77 481.343 604.627 482.47C604.734 481.754 604.94 480.306 605.038 479.581Z" fill="#23140D"/>
<path d="M662.188 485.823C662.34 484.026 663.207 482.506 664.369 481.182C664.79 483.016 665.666 484.706 667.097 485.975C665.907 485.332 664.709 484.706 663.493 484.16C663.207 484.509 662.653 485.224 662.375 485.582L662.188 485.823Z" fill="#A08163"/>
<path d="M347.476 485.394C352.466 485.921 357.804 486.44 362.463 484.106C362.982 484.151 364.019 484.24 364.538 484.285C360.666 488.068 354.469 488.846 349.256 487.907C351.447 487.817 353.638 487.603 355.819 487.397C353.02 486.789 350.204 486.252 347.476 485.394Z" fill="#F8DEA9"/>
</svg>
